@startuml "商城收银系统v1.2"

class CashContext{
    +getResult(): double
}

abstract CashSuper {
    + acceptCash(): double
}

CashContext o--> CashSuper

class CashNormal{
    + acceptCash(): double
}

class CashRebate{
    + acceptCash(): double
}


class CashReturn{
    + acceptCash(): double
}

class CashReturnRebate extends CashSuper{
    + acceptCash(): double
}

CashSuper <|-- CashNormal
CashSuper <|-- CashRebate
CashSuper <|-- CashReturn
@enduml